<svg xmlns="http://www.w3.org/2000/svg" width="151.173" height="57.379" viewBox="0 0 151.173 57.379">
  <g id="Group_2" data-name="Group 2" transform="translate(-33.634 -390.571)">
    <path id="Path_2" data-name="Path 2" d="M133.3,403.454h-8.457L116.6,417.62V390.768h-8.034V438.34H116.6V423.117l8.246,15.223H133.3l-10.149-18.183Z" transform="translate(-44.064 -0.116)" fill="#131313"/>
    <path id="Path_3" data-name="Path 3" d="M182.809,421.562h7.611q7.612,0,7.612,6.977v12.686H182.809v7.189a2.024,2.024,0,0,0,.423,1.48,2.733,2.733,0,0,0,1.691.423H188.1a2.021,2.021,0,0,0,1.48-.423,2.463,2.463,0,0,0,.423-1.48v-2.537h7.823v3.594c0,4.651-2.537,6.977-7.823,6.977h-7.4c-5.074,0-7.823-2.326-7.823-6.977V428.539C174.986,423.888,177.524,421.562,182.809,421.562Zm0,14.589h7.4v-6.766a2.021,2.021,0,0,0-.423-1.48,2.463,2.463,0,0,0-1.48-.423h-3.383a2.021,2.021,0,0,0-1.48.423,2.464,2.464,0,0,0-.423,1.48v6.766Z" transform="translate(-82.998 -18.224)" fill="#131313"/>
    <path id="Path_4" data-name="Path 4" d="M245.545,466.174h-4.863v-6.132h3.594q3.171,0,3.806-2.537h0a7.954,7.954,0,0,0-.211-4.44L246.18,448.2l-9.3-26.641h8.246l6.131,19.875,3.383-19.875h8.034l-7.823,37C254,463.637,250.831,466.174,245.545,466.174Z" transform="translate(-119.516 -18.224)" fill="#131313"/>
    <path id="Path_5" data-name="Path 5" d="M315.829,421.562h8.034q7.611,0,7.611,6.977v20.932q0,6.977-7.611,6.977h-8.034q-7.612,0-7.612-6.977V428.539Q308.217,421.562,315.829,421.562Zm7.611,27.063V429.6a2.023,2.023,0,0,0-.423-1.48,2.734,2.734,0,0,0-1.691-.423h-3.172a3.277,3.277,0,0,0-1.691.423,2.465,2.465,0,0,0-.423,1.48v19.029a2.023,2.023,0,0,0,.423,1.48,2.733,2.733,0,0,0,1.691.423h3.172a3.277,3.277,0,0,0,1.691-.423A2.465,2.465,0,0,0,323.44,448.625Z" transform="translate(-161.468 -18.224)" fill="#131313"/>
    <path id="Path_6" data-name="Path 6" d="M41.88,413.864h8.669c5.5,0,8.034,2.537,8.034,7.611v22.412c0,5.074-2.749,7.612-8.034,7.612H41.88q-8.246,0-8.246-7.612V421.475Q33.634,413.864,41.88,413.864Zm8.246,28.966V422.321a3.274,3.274,0,0,0-.423-1.691,2.729,2.729,0,0,0-1.691-.423H44.417a2.729,2.729,0,0,0-1.691.423,2.731,2.731,0,0,0-.423,1.691V442.83a3.277,3.277,0,0,0,.423,1.691,2.733,2.733,0,0,0,1.691.423h3.594a2.733,2.733,0,0,0,1.691-.423A2.734,2.734,0,0,0,50.125,442.83Z" transform="translate(0 -13.697)" fill="#131313"/>
    <path id="Path_7" data-name="Path 7" d="M384.211,482.125h-6.343a2.086,2.086,0,0,0-1.9,2.114v5.5a1.952,1.952,0,0,0,1.9,2.115h6.343a2.086,2.086,0,0,0,1.9-2.115v-5.5A2.086,2.086,0,0,0,384.211,482.125Z" transform="translate(-201.307 -53.838)" fill="#e44136"/>
    <path id="Path_8" data-name="Path 8" d="M388.073,491.514l-2.96-1.691c-.211,0-.423,0-.423.212v3.383c0,.212.211.212.423.212l2.96-1.691C388.284,491.726,388.284,491.514,388.073,491.514Z" transform="translate(-206.438 -58.365)" fill="#f7f5f5"/>
    <path id="Path_9" data-name="Path 9" d="M59.741,398.359a1.057,1.057,0,0,1-1.057-1.057,4.444,4.444,0,1,0-8.88,0,1.057,1.057,0,0,1-2.114,0,6.557,6.557,0,1,1,13.109,0A1.056,1.056,0,0,1,59.741,398.359Z" transform="translate(-8.265)" fill="#e44136"/>
  </g>
</svg>
